# xmcd CD database file
#
# Track frame offsets:
#	182
#	49690
#	82492
#	115585
#	142590
#	164335
#	197975
#	229680
#	254005
#
# Disc length: 3706 seconds
#
# Revision: 2
# Processed by: cddbd v1.5.1PL2 Copyright (c) Steve Scherf et al.
# Submitted via: CDex 1.51
#
DISCID=790e7809
DTITLE=Various Artist - Pioneer Vol 05 Jazz Tracks
DYEAR=1992
DGENRE=Jazz
TTITLE0=Cannonball Adderly with Miles Davis - Autumn Leaves'
TTITLE1=Maynard Ferguson - Stella by Starlight
TTITLE2=Donald Byrd - Black Byrd
TTITLE3=Weather Report - Birdland
TTITLE4=Ronnie Laws and Pressure - Always There
TTITLE5=Earl Klugh - I Heard It Through The Grapevine
TTITLE6=Stanley Jordan - Eleanor Rigby
TTITLE7=Tom Browne - Herbal Scent
TTITLE8=Earl Klugh - Captain Caribe
EXTD=YEAR: 1992
EXTT0=
EXTT1=
EXTT2=
EXTT3=
EXTT4=
EXTT5=
EXTT6=
EXTT7=
EXTT8=
PLAYORDER=
